<?xml version="1.0" encoding="UTF-8"?>
<svg width="24px" height="24px" viewBox="0 0 24 24" version="1.1" xmlns="http://www.w3.org/2000/svg" xmlns:xlink="http://www.w3.org/1999/xlink">
    <title>VW/Icons/award</title>
    <defs>
        <path d="M12,3.89999997 C9.07499999,3.89999997 6.67499998,6.29999998 6.67499998,9.22499999 C6.67499998,12.15 9.07499999,14.55 12,14.55 C14.925,14.55 17.325,12.15 17.325,9.22499999 C17.325,6.29999998 14.925,3.89999997 12,3.89999997 Z M12,13.725 C9.52499999,13.725 7.42499998,11.7 7.42499998,9.14999999 C7.42499998,6.67499998 9.44999999,4.57499997 12,4.57499997 C14.475,4.57499997 16.575,6.59999998 16.575,9.14999999 C16.575,11.7 14.475,13.725 12,13.725 Z M15.075,18.525 L15.075,22.8 L12.225,20.925 C12.075,20.85 11.925,20.85 11.775,20.925 L8.92499999,22.8 L8.92499999,18.525 C8.84999999,18.45 8.77499999,18.375 8.77499999,18.3 L8.09999998,16.725 L8.09999998,23.55 C8.09999998,23.7 8.17499998,23.85 8.32499998,23.925 C8.47499999,24.0000001 8.62499999,24.0000001 8.77499999,23.925 L12,21.75 L15.225,23.925 C15.375,24.0000001 15.525,24.0000001 15.675,23.925 C15.825,23.85 15.9,23.7 15.9,23.55 L15.9,16.725 L15.225,18.3 C15.225,18.375 15.15,18.45 15.075,18.525 Z M21.225,11.25 L19.875,9.22499999 L21.225,7.27499998 C21.3,7.19999998 21.3,7.04999998 21.3,6.97499998 C21.3,6.82499998 21.225,6.74999998 21.075,6.67499998 L18.6,5.39999997 L18.825,2.77499996 C18.825,2.62499996 18.825,2.54999996 18.675,2.47499996 C18.6,2.39999996 18.45,2.32499996 18.375,2.32499996 L15.75,2.54999996 L14.775,0.224999951 C14.7,0.0749999503 14.625,-5.00000006e-08 14.55,-5.00000006e-08 C14.4,-5.00000006e-08 14.325,-5.00000006e-08 14.175,0.0749999503 L12,1.49999995 L9.82499999,0.0749999503 C9.67499999,-5.00000006e-08 9.59999999,-5.00000006e-08 9.44999999,-5.00000006e-08 C9.29999999,-5.00000006e-08 9.22499999,0.149999951 9.22499999,0.224999951 L8.24999998,2.54999996 L5.54999997,2.32499996 C5.39999997,2.32499996 5.32499997,2.32499996 5.24999997,2.47499996 C5.17499997,2.54999996 5.09999997,2.62499996 5.09999997,2.77499996 L5.32499997,5.39999997 L2.92499996,6.59999998 C2.77499996,6.67499998 2.69999996,6.74999998 2.69999996,6.89999998 C2.69999996,7.04999998 2.69999996,7.12499998 2.77499996,7.19999998 L4.12499997,9.14999999 L2.77499996,11.25 C2.69999996,11.325 2.69999996,11.475 2.69999996,11.55 C2.69999996,11.7 2.77499996,11.775 2.92499996,11.85 L5.17499997,13.05 L5.17499997,13.2 C5.02499997,15.6 5.17499997,15.75 5.24999997,15.9 C5.32499997,15.975 5.47499997,16.05 5.54999997,16.05 L8.09999998,16.05 L9.07499999,18.3 C9.14999999,18.375 9.22499999,18.525 9.29999999,18.525 C9.37499999,18.525 9.52499999,18.525 9.59999999,18.525 L12.075,17.1 L14.25,18.525 C14.325,18.6 14.475,18.6 14.625,18.6 C14.775,18.6 14.85,18.45 14.85,18.375 L15.825,16.125 L18.375,16.125 C18.525,16.125 18.6,16.05 18.675,15.975 C18.825,15.825 18.9,15.675 18.75,13.275 L18.75,13.125 L21,11.925 C21.075,11.85 21.15,11.775 21.225,11.625 C21.3,11.475 21.3,11.325 21.225,11.25 Z M18.225,12.375 C18.075,12.45 18,12.6 18,12.75 C18.075,13.575 18.075,14.4 18.075,14.925 L18.075,15.075 L15.6,15.075 C15.45,15.075 15.3,15.15 15.225,15.3 L14.4,17.325 L12.45,16.05 C12.3,15.975 12.15,15.975 12,16.05 L9.74999999,17.4 L8.84999999,15.375 C8.77499999,15.225 8.62499999,15.15 8.47499999,15.15 L5.92499997,15.15 L5.92499997,15 C5.92499997,14.55 5.99999997,13.65 5.99999997,12.825 C5.99999997,12.675 5.92499997,12.525 5.77499997,12.45 L3.67499997,11.325 L4.94999997,9.44999999 C5.02499997,9.29999999 5.02499997,9.14999999 4.94999997,8.99999999 L3.67499997,7.12499998 L5.99999997,5.99999997 C6.14999998,5.92499997 6.22499998,5.77499997 6.22499998,5.62499997 L5.99999997,3.22499996 L8.47499999,3.44999996 C8.62499999,3.44999996 8.84999999,3.37499996 8.92499999,3.22499996 L9.74999999,1.04999995 L11.775,2.32499996 C11.85,2.39999996 11.925,2.39999996 12,2.39999996 L12,2.39999996 C12.075,2.39999996 12.15,2.39999996 12.225,2.32499996 L14.25,1.04999995 L15.15,3.14999996 C15.225,3.29999996 15.375,3.37499996 15.6,3.37499996 L18,3.22499996 L17.775,5.62499997 C17.775,5.77499997 17.85,5.92499997 18,5.99999997 L20.25,7.19999998 L19.05,8.99999999 C18.975,9.14999999 18.975,9.29999999 19.05,9.44999999 L20.325,11.325 L18.225,12.375 Z" id="path-1"></path>
    </defs>
    <g id="VW/Icons/award" stroke="none" stroke-width="1" fill="none" fill-rule="evenodd">
        <mask id="mask-2" fill="white">
            <use xlink:href="#path-1"></use>
        </mask>
        <g fill-rule="nonzero"></g>
        <g id="Group" mask="url(#mask-2)" fill="#000000">
            <g id="🎨-color">
                <rect id="Swatch" x="0" y="0" width="24" height="24"></rect>
            </g>
        </g>
    </g>
</svg>