<?xml version="1.0" encoding="UTF-8"?>
<svg width="24px" height="24px" viewBox="0 0 24 24" version="1.1" xmlns="http://www.w3.org/2000/svg" xmlns:xlink="http://www.w3.org/1999/xlink">
    <title>VW/Icons/blog</title>
    <defs>
        <path d="M11.9999999,-5.00000006e-08 C5.39999997,-5.00000006e-08 -5.00000006e-08,5.39999997 -5.00000006e-08,11.9999999 C-5.00000006e-08,18.6 5.39999997,23.9999999 11.9999999,23.9999999 C18.6,23.9999999 23.9999999,18.6 23.9999999,11.9999999 C23.9999999,5.39999997 18.6,-5.00000006e-08 11.9999999,-5.00000006e-08 Z M20.4,12.9 L19.5,12.9 C19.5,12.6 19.575,12.3 19.575,12 C19.575,7.87499998 16.2,4.42499997 12,4.42499997 C7.87499998,4.42499997 4.42499997,7.87499998 4.42499997,12 C4.42499997,16.125 7.79999998,19.575 12,19.575 C15.3,19.575 18.15,17.4 19.125,14.4 L20.1,14.4 C19.05,17.925 15.825,20.475 12,20.475 C7.34999998,20.475 3.52499996,16.65 3.52499996,12 C3.52499996,7.34999998 7.34999998,3.52499996 12,3.52499996 C16.65,3.52499996 20.475,7.34999998 20.475,12 C20.475,12.3 20.4,12.6 20.4,12.9 Z M10.8,9.22499999 L10.8,8.32499998 C10.875,8.32499998 10.875,8.32499998 10.95,8.32499998 C13.5,8.32499998 15.6,10.35 15.675,12.9 L14.775,12.9 C14.7,10.8 12.9,9.14999999 10.8,9.22499999 Z M12.75,12 C12.75,12.525 12.3,12.975 11.775,12.975 C11.25,12.975 10.8,12.525 10.8,12 C10.8,11.475 11.25,11.025 11.775,11.025 C12.375,11.025 12.75,11.475 12.75,12 Z M10.95,6.52499998 L10.8,6.52499998 L10.8,5.62499997 L10.95,5.62499997 C15,5.62499997 18.225,8.92499999 18.225,12.9 L17.325,12.9 C17.325,9.37499999 14.475,6.52499998 10.95,6.52499998 Z" id="path-1"></path>
    </defs>
    <g id="VW/Icons/blog" stroke="none" stroke-width="1" fill="none" fill-rule="evenodd">
        <mask id="mask-2" fill="white">
            <use xlink:href="#path-1"></use>
        </mask>
        <g fill-rule="nonzero"></g>
        <g id="Group" mask="url(#mask-2)" fill="#000000">
            <g id="🎨-color">
                <rect id="Swatch" x="0" y="0" width="24" height="24"></rect>
            </g>
        </g>
    </g>
</svg>