<?xml version="1.0" encoding="UTF-8"?>
<svg width="24px" height="24px" viewBox="0 0 24 24" version="1.1" xmlns="http://www.w3.org/2000/svg" xmlns:xlink="http://www.w3.org/1999/xlink">
    <title>VW/Icons/check-circ</title>
    <defs>
        <path d="M11.9999999,-5.00000006e-08 C5.39999997,-5.00000006e-08 -5.00000006e-08,5.39999997 -5.00000006e-08,11.9999999 C-5.00000006e-08,18.6 5.39999997,23.9999999 11.9999999,23.9999999 C18.6,23.9999999 23.9999999,18.6 23.9999999,11.9999999 C23.9999999,5.39999997 18.6,-5.00000006e-08 11.9999999,-5.00000006e-08 Z M12,22.575 C6.14999998,22.575 1.42499996,17.85 1.42499996,12 C1.42499996,6.14999998 6.14999998,1.42499996 12,1.42499996 C17.85,1.42499996 22.575,6.14999998 22.575,12 C22.575,17.85 17.85,22.575 12,22.575 Z M10.275,15.075 L6.82499998,11.625 L5.84999997,12.6 L10.275,17.025 L18.525,8.77499999 L17.55,7.79999998 L10.275,15.075 Z" id="path-1"></path>
    </defs>
    <g id="VW/Icons/check-circ" stroke="none" stroke-width="1" fill="none" fill-rule="evenodd">
        <mask id="mask-2" fill="white">
            <use xlink:href="#path-1"></use>
        </mask>
        <g fill-rule="nonzero"></g>
        <g id="Group" mask="url(#mask-2)" fill="#000000">
            <g id="🎨-color">
                <rect id="Swatch" x="0" y="0" width="24" height="24"></rect>
            </g>
        </g>
    </g>
</svg>