<svg
    xmlns="http://www.w3.org/2000/svg"    
    x="0px"
    y="0px"
    viewBox="0 0 24 24"
    aria-labelledby="chevron down"
    role="presentation"
  >
    <title  lang="en">chevron down</title>

    <g fill="currentColor">
	<path id="path-1_00000096755185364059765070000004277607499070731165_" d="M12,6.3L12,6.3c1.4,0,2.6-1.2,2.6-2.5
		c0-0.7-0.3-1.3-0.8-1.8c-0.4-0.4-1.1-0.7-1.8-0.7c0,0,0,0-0.1,0c-1.4,0-2.5,1.1-2.5,2.5c0,0.7,0.3,1.3,0.8,1.8
		C10.7,6.1,11.3,6.3,12,6.3z M11.9,1.7C12,1.7,12,1.7,11.9,1.7c0.6,0,1.1,0.2,1.5,0.6S14,3.2,14,3.8l0,0c0,1.1-1,2-2,2.1
		c-0.6,0-1.1-0.2-1.5-0.6S9.9,4.4,9.9,3.8C9.9,2.6,10.8,1.7,11.9,1.7z M16,9.3c0-1.2-0.8-1.9-1.6-2.4c-1-0.7-1.6-0.1-2,0.4
		c-0.1,0.2-0.2,0.2-0.4,0.4c-0.1-0.1-0.3-0.2-0.4-0.4c-0.4-0.5-0.9-1-1.9-0.5C8.9,7.3,8.1,7.9,8,9.3v0.2h8V9.3z M8.5,9.1
		C8.6,8.2,9.1,7.7,10,7.3c0.7-0.4,0.9-0.1,1.3,0.4c0.2,0.2,0.4,0.4,0.6,0.5L12,8.2l0.1-0.1c0.2-0.2,0.4-0.3,0.5-0.5
		c0.4-0.4,0.8-0.8,1.5-0.3c0.8,0.5,1.3,1,1.3,1.8L8.5,9.1L8.5,9.1z M3.4,19.5C1.2,19.6,0,21.1,0,22.6h0.5c0-1.3,1.1-2.7,2.9-2.7
		c1.9-0.1,3.4,1,3.5,2.7h0.4C7.1,20.7,5.6,19.4,3.4,19.5z M12.1,19.5L12.1,19.5c-2.4,0-3.7,1.6-3.8,3.1h0.4c0-1.4,1.1-2.7,3.3-2.7
		l0,0c2,0,3.2,1.4,3.2,2.7h0.4C15.6,20.9,14.1,19.5,12.1,19.5z M20.5,19.5c-0.1,0-0.1,0-0.1,0c-2.1,0-3.6,1.2-3.8,3.1h0.5
		c0.1-1.7,1.5-2.8,3.4-2.8c2,0.1,3,1.4,3,2.7H24C23.9,21.1,22.8,19.6,20.5,19.5z M10.4,15.4c-0.5,0.4-0.7,1.1-0.7,1.7
		c0,1.3,1.1,2.3,2.3,2.3l0,0c1.3,0,2.3-1,2.3-2.2c0-0.6-0.2-1.2-0.7-1.6c-0.4-0.4-1-0.8-1.6-0.8C11.4,14.7,10.8,15,10.4,15.4z
		 M13.9,17.2c0,1.1-0.9,1.8-1.9,1.8l0,0c-1.1,0-1.9-0.8-1.9-1.9c0-0.5,0.2-1,0.6-1.4s0.8-0.6,1.4-0.5c0.5,0,1,0.2,1.4,0.6
		C13.7,16.1,13.9,16.6,13.9,17.2z M3.6,19.4L3.6,19.4c0.7,0,1.3-0.2,1.7-0.7c0.4-0.5,0.7-1,0.7-1.6s-0.2-1.2-0.6-1.6
		c-0.5-0.4-1.1-0.7-2-0.7c-1.1,0-2.1,1-2.1,2.3C1.3,18.4,2.3,19.4,3.6,19.4z M3.4,15.2L3.4,15.2c0.7,0,1.3,0.2,1.7,0.6
		c0.3,0.3,0.5,0.8,0.5,1.3s-0.2,1-0.5,1.4C4.7,18.8,4.1,19,3.6,19c-1,0-1.9-0.8-1.9-1.9C1.7,16.1,2.5,15.2,3.4,15.2z M20.2,14.8
		c-0.6,0-1.1,0.2-1.6,0.7c-0.4,0.4-0.7,1.1-0.7,1.7c0,1.3,1,2.2,2.3,2.3l0,0c0.7,0,1.3-0.2,1.7-0.7c0.5-0.5,0.7-1,0.7-1.6
		C22.6,15.8,21.6,14.8,20.2,14.8L20.2,14.8z M22.3,17.1c0,0.5-0.1,1-0.5,1.4S20.9,19,20.3,19l0,0c-1.1,0-1.9-0.8-1.9-1.9
		c0-0.5,0.2-1,0.5-1.3c0.4-0.4,0.8-0.5,1.3-0.5l0,0C21.4,15.2,22.3,16,22.3,17.1z M3.9,10.9H20v2.4h0.5v-2.9H3.3v2.9h0.5L3.9,10.9
		L3.9,10.9z"/>
</g>
</svg>
