<?xml version="1.0" encoding="UTF-8"?>
<svg width="24px" height="24px" viewBox="0 0 24 24" version="1.1" xmlns="http://www.w3.org/2000/svg" xmlns:xlink="http://www.w3.org/1999/xlink">
    <title>VW/Icons/close-circ</title>
    <defs>
        <path d="M20.475,3.52499996 C18.225,1.27499996 15.225,-5.00000006e-08 12,-5.00000006e-08 C8.77499999,-5.00000006e-08 5.77499997,1.27499996 3.52499996,3.52499996 C-1.12500005,8.17499998 -1.12500005,15.825 3.52499996,20.475 C5.84999997,22.8 8.92499999,23.9999999 12,23.9999999 C15.075,23.9999999 18.15,22.8 20.475,20.475 C22.725,18.225 24.0000001,15.225 24.0000001,11.9999999 C24.0000001,8.77499999 22.725,5.77499997 20.475,3.52499996 Z M20.1,20.1 C15.6,24.6000001 8.39999999,24.6000001 3.89999997,20.1 C-0.600000053,15.6 -0.600000053,8.39999999 3.89999997,3.89999997 C6.07499998,1.72499996 8.92499999,0.524999952 12,0.524999952 C15.075,0.524999952 17.925,1.72499996 20.1,3.89999997 C22.275,6.07499998 23.475,8.92499999 23.475,12 C23.475,15.075 22.275,17.925 20.1,20.1 Z M16.2,7.42499998 L12,11.625 L7.79999998,7.42499998 L7.42499998,7.79999998 L11.625,12 L7.42499998,16.2 L7.79999998,16.575 L12,12.375 L16.2,16.575 L16.575,16.2 L12.375,12 L16.575,7.79999998 L16.2,7.42499998 Z" id="path-1"></path>
    </defs>
    <g id="VW/Icons/close-circ" stroke="none" stroke-width="1" fill="none" fill-rule="evenodd">
        <mask id="mask-2" fill="white">
            <use xlink:href="#path-1"></use>
        </mask>
        <g fill-rule="nonzero"></g>
        <g id="Group" mask="url(#mask-2)" fill="#000000">
            <g id="🎨-color">
                <rect id="Swatch" x="0" y="0" width="24" height="24"></rect>
            </g>
        </g>
    </g>
</svg>