<svg
    xmlns="http://www.w3.org/2000/svg"    
    x="0px"
    y="0px"
    viewBox="0 0 24 24"
    aria-labelledby="chevron down"
    role="presentation"
  >
    <title  lang="en">chevron down</title>

    <g fill="currentColor">
	<path id="path-1_00000079444830687796752660000014226970890358884995_" d="M22,5.4L22,5.4C21.9,5.3,21.9,5.3,22,5.4l-5.3-5.3
		c0,0,0,0-0.1,0c0,0,0,0-0.1,0h-0.1H2.3C2.1,0,2,0.1,2,0.3v23.4C2,23.9,2.2,24,2.3,24h19.4c0.1,0,0.3-0.1,0.3-0.3V5.6
		C22,5.5,22,5.5,22,5.4z M16.7,1L21,5.2h-3.9c-0.2,0-0.4-0.2-0.4-0.4V1z M21.5,23.4H2.5V0.6h13.6v2.9H5.3v0.4h10.9v1
		c0,0.5,0.4,1,1,1h4.3V23.4z M18.7,14.4H5.3c-0.1,0-0.1,0.1-0.1,0.2v5.8c0,0.1,0.1,0.1,0.1,0.1h13.4c0.1,0,0.1-0.1,0.1-0.1v-5.8
		C18.9,14.5,18.8,14.4,18.7,14.4z M18.5,20.2h-13v-5.4h13V20.2z M5.1,6.2v3.2c0,0.1,0.1,0.1,0.2,0.1h13.4c0.1,0,0.2-0.1,0.2-0.1V6.2
		c0-0.1-0.1-0.2-0.2-0.2H5.3C5.2,6.1,5.1,6.2,5.1,6.2z M5.5,6.4h13v2.8h-13V6.4z M18.7,11.8H5.3v0.4h13.4L18.7,11.8L18.7,11.8z"/>
</g>
</svg>
