<?xml version="1.0" encoding="UTF-8"?>
<svg width="24px" height="24px" viewBox="0 0 24 24" version="1.1" xmlns="http://www.w3.org/2000/svg" xmlns:xlink="http://www.w3.org/1999/xlink">
    <title>VW/Icons/ig</title>
    <defs>
        <path d="M12.15,14.625 C13.8,14.625 15.15,13.35 15.15,11.7 C15.15,10.125 13.8,8.77499999 12.15,8.77499999 C10.5,8.77499999 9.14999999,10.05 9.14999999,11.7 C9.22499999,13.35 10.5,14.625 12.15,14.625 Z M15.6,8.92499997 L17.25,8.92499997 C17.625,8.92499997 17.925,8.62499999 17.925,8.24999998 L17.925,6.59999998 C17.925,6.22499998 17.625,5.92499997 17.25,5.92499997 L15.6,5.92499997 C15.225,5.92499997 14.925,6.22499998 14.925,6.59999998 L14.925,8.24999998 C14.925,8.62499999 15.225,8.92499997 15.6,8.92499997 Z M11.9999999,-5.00000006e-08 C5.39999997,-5.00000006e-08 -5.00000006e-08,5.39999997 -5.00000006e-08,11.9999999 C-5.00000006e-08,18.6 5.39999997,23.9999999 11.9999999,23.9999999 C18.6,23.9999999 23.9999999,18.6 23.9999999,11.9999999 C23.9999999,5.39999997 18.6,-5.00000006e-08 11.9999999,-5.00000006e-08 Z M19.575,17.25 C19.575,18.3 18.75,19.125 17.7,19.125 L6.59999998,19.125 C5.54999997,19.125 4.72499997,18.3 4.72499997,17.25 L4.72499997,6.22499998 C4.72499997,5.17499997 5.54999997,4.34999997 6.59999998,4.34999997 L17.7,4.34999997 C18.75,4.34999997 19.575,5.17499997 19.575,6.22499998 L19.575,17.25 Z M16.8,11.85 C16.8,14.325 14.7,16.35 12.15,16.35 C9.59999999,16.35 7.49999998,14.325 7.49999998,11.85 C7.49999998,11.4 7.57499998,10.95 7.72499998,10.575 L6.37499998,10.575 L6.37499998,16.875 C6.37499998,17.175 6.67499998,17.475 6.97499998,17.475 L17.325,17.475 C17.625,17.475 17.925,17.175 17.925,16.875 L17.925,10.575 L16.65,10.575 C16.725,11.025 16.8,11.4 16.8,11.85 Z" id="path-1"></path>
    </defs>
    <g id="VW/Icons/ig" stroke="none" stroke-width="1" fill="none" fill-rule="evenodd">
        <mask id="mask-2" fill="white">
            <use xlink:href="#path-1"></use>
        </mask>
        <g fill-rule="nonzero"></g>
        <g id="Group" mask="url(#mask-2)" fill="#000000">
            <g id="🎨-color">
                <rect id="Swatch" x="0" y="0" width="24" height="24"></rect>
            </g>
        </g>
    </g>
</svg>