<svg
    xmlns="http://www.w3.org/2000/svg"    
    x="0px"
    y="0px"
    viewBox="0 0 24 24"
    aria-labelledby="chevron down"
    role="presentation"
  >
    <title  lang="en">chevron down</title>

    <g fill="currentColor">
	<path id="path-1_00000147943061017985908960000006348897088888651952_" d="M12.1,14.6c1.7,0,3-1.3,3-2.9c0-1.6-1.3-2.9-3-2.9
		s-3,1.3-3,2.9C9.2,13.4,10.5,14.6,12.1,14.6z M15.6,8.9h1.6c0.4,0,0.7-0.3,0.7-0.7V6.6c0-0.4-0.3-0.7-0.7-0.7h-1.6
		c-0.4,0-0.7,0.3-0.7,0.7v1.7C14.9,8.6,15.2,8.9,15.6,8.9z M12,0C5.4,0,0,5.4,0,12s5.4,12,12,12s12-5.4,12-12S18.6,0,12,0z
		 M19.6,17.2c0,1-0.8,1.9-1.9,1.9H6.6c-1,0-1.9-0.8-1.9-1.9v-11c0-1,0.8-1.9,1.9-1.9h11.1c1,0,1.9,0.8,1.9,1.9V17.2z M16.8,11.9
		c0,2.5-2.1,4.5-4.6,4.5s-4.6-2-4.6-4.5c0-0.5,0.1-0.9,0.2-1.3H6.4v6.3c0,0.3,0.3,0.6,0.6,0.6h10.4c0.3,0,0.6-0.3,0.6-0.6v-6.3h-1.3
		C16.7,11,16.8,11.4,16.8,11.9z"/>
</g>
</svg>
