<svg
    xmlns="http://www.w3.org/2000/svg"    
    x="0px"
    y="0px"
    viewBox="0 0 24 24"
    aria-labelledby="chevron down"
    role="presentation"
  >
    <title  lang="en">chevron down</title>

    <g fill="currentColor">
	<path id="path-1_00000034778704849994877620000010590183565258632626_" d="M14.6,9.1L14.6,9.1C15.1,9.6,16,10,16.8,10
		c0.8,0,1.6-0.4,2.2-0.9l0,0c0.5-0.5,0.9-1.3,0.9-2.2S19.5,5.3,19,4.7l0,0l0,0c-0.5-0.5-1.4-0.9-2.2-0.9c-0.8,0-1.6,0.4-2.2,0.9l0,0
		l0,0c-0.5,0.5-0.9,1.3-0.9,2.2S14,8.5,14.6,9.1L14.6,9.1z M23,0H1C0.4,0,0,0.4,0,1v22c0,0.5,0.5,1,1,1h22c0.5,0,1-0.5,1-1V1
		C24,0.4,23.5,0,23,0z M22,16.8l-4.8-4.5L17,12.1l-0.3,0.2l-3.6,2.6L8.3,9.2L8,8.9L7.7,9.2l-5.8,5V1.9H22V16.8z"/>
</g>
</svg>
