<?xml version="1.0" encoding="UTF-8"?>
<svg width="24px" height="24px" viewBox="0 0 24 24" version="1.1" xmlns="http://www.w3.org/2000/svg" xmlns:xlink="http://www.w3.org/1999/xlink">
    <title>VW/Icons/info-circ</title>
    <defs>
        <path d="M11.6016531,0.885561408 C17.6380168,0.885561408 22.6561986,5.90374325 22.6561986,12.0128342 C22.7289259,18.1219251 17.710744,23.140107 11.6016531,23.140107 C5.49256215,23.140107 0.547107589,18.1219251 0.547107589,12.0128342 C0.547107589,5.90374325 5.56528943,0.885561408 11.6016531,0.885561408 Z M11.6016531,2.19465232 C6.21983489,2.19465232 1.8561985,6.5582887 1.8561985,12.0128342 C1.8561985,17.4673797 6.21983489,21.831016 11.6743804,21.831016 C17.0561986,21.831016 21.4925622,17.3946524 21.4925622,12.0128342 C21.4925622,6.63101598 17.0561986,2.19465232 11.6016531,2.19465232 Z M12.6198349,9.83101599 L12.6198349,18.3401069 L10.4380167,18.3401069 L10.4380167,9.83101599 L12.6198349,9.83101599 Z M12.6198349,6.26737961 L12.6198349,8.01283417 L10.3652894,8.01283417 L10.3652894,6.26737961 L12.6198349,6.26737961 Z" id="path-1"></path>
    </defs>
    <g id="VW/Icons/info-circ" stroke="none" stroke-width="1" fill="none" fill-rule="evenodd">
        <mask id="mask-2" fill="white">
            <use xlink:href="#path-1"></use>
        </mask>
        <g id="Combined-Shape" fill-rule="nonzero"></g>
        <g id="Group" mask="url(#mask-2)" fill="#000000">
            <g id="🎨-color">
                <rect id="Swatch" x="0" y="0" width="24" height="24"></rect>
            </g>
        </g>
    </g>
</svg>