<svg
    xmlns="http://www.w3.org/2000/svg"    
    x="0px"
    y="0px"
    viewBox="0 0 24 24"
    aria-labelledby="chevron down"
    role="presentation"
  >
    <title  lang="en">chevron down</title>

    <g fill="currentColor">
	<path id="path-1_00000028325800253141385130000017682293124886553986_" d="M12,0c2.8,0,5.5,1,7.6,2.7l0,0l-0.2-1.9l0.5-0.1l0.4,2.8
		l-2.8,0.2V3.2l1.9-0.1c-2.1-1.7-4.7-2.7-7.4-2.7C5.6,0.4,0.4,5.6,0.4,12S5.6,23.5,12,23.5S23.5,18.4,23.5,12l0,0H24
		c0,6.6-5.4,12-12,12S0,18.6,0,12S5.4,0,12,0z M12.8,8.2l-1.2,3.1c0.1-0.1,0.3-0.1,0.5-0.1c0.4,0,0.7,0.1,0.9,0.4
		c0.3,0.3,0.4,0.7,0.4,1.9c0,1.1-0.1,1.4-0.4,1.8c-0.2,0.4-0.7,0.5-1.1,0.5c-0.5,0-0.9-0.2-1.1-0.5c-0.3-0.4-0.4-0.8-0.4-1.8
		c0-0.8,0.1-1.4,0.3-1.9l0,0l1.3-3.4V8.2H12.8z M8,8.1c0.5,0,0.8,0.1,1.1,0.4c0.3,0.3,0.4,0.8,0.4,1.6c0,0.6-0.1,0.9-0.2,1.2
		c-0.1,0.2-0.2,0.4-0.4,0.4c0.2,0.1,0.4,0.2,0.4,0.4c0.1,0.4,0.2,0.7,0.2,1.5c0,0.9-0.1,1.4-0.5,1.8c-0.2,0.2-0.7,0.4-1,0.4
		c-0.4,0-0.8-0.1-1.1-0.4c-0.3-0.2-0.5-0.6-0.5-1.1l0,0v-0.4h0.9v0.5c0,0.5,0.3,0.8,0.7,0.8c0.2,0,0.4-0.1,0.4-0.2
		c0.1-0.2,0.2-0.6,0.2-1.3c0-0.8-0.1-1.1-0.2-1.3c-0.1-0.2-0.2-0.2-0.4-0.2l0,0H7.8v-0.8h0.4c0.1,0,0.3-0.1,0.4-0.1
		c0.2-0.2,0.2-0.5,0.2-1.1S8.7,9.3,8.6,9.1C8.4,9,8.3,8.9,8.1,8.9c-0.4,0-0.6,0.2-0.6,0.8l0,0v0.5H6.6V9.8c0-0.6,0.2-0.9,0.4-1.3
		C7.3,8.2,7.7,8.1,8,8.1z M15.7,8.2c0.4,0,0.8,0.1,1.1,0.4c0.3,0.2,0.4,0.6,0.4,1.1l0,0v4.5c0,0.5-0.2,0.9-0.4,1.1
		c-0.2,0.2-0.7,0.4-1.1,0.4c-0.4,0-0.8-0.2-1.1-0.4c-0.3-0.2-0.4-0.6-0.4-1.1l0,0V9.7c0-0.5,0.2-0.9,0.4-1.1
		C14.9,8.3,15.3,8.2,15.7,8.2z M11.9,11.9c-0.2,0-0.4,0.1-0.4,0.2c-0.2,0.2-0.2,0.7-0.2,1.4l0,0.2c0,0.6,0,1,0.2,1.2
		c0.1,0.1,0.2,0.2,0.4,0.2c0.1,0,0.3-0.1,0.4-0.2c0.2-0.2,0.2-0.8,0.2-1.4s0-1.1-0.2-1.4C12.3,12,12.1,11.9,11.9,11.9z M15.7,8.9
		c-0.4,0-0.7,0.2-0.7,0.8l0,0v4.6c0,0.5,0.3,0.8,0.7,0.8c0.4,0,0.7-0.2,0.7-0.8l0,0V9.7C16.4,9.2,16,8.9,15.7,8.9z M19,8.2
		c0.5,0,0.9,0.4,0.9,0.9C20,9.6,19.6,10,19,10c-0.5,0-0.9-0.4-0.9-0.9C18.1,8.6,18.5,8.2,19,8.2z M19,8.6c-0.3,0-0.5,0.2-0.5,0.5
		s0.2,0.5,0.5,0.5c0.3,0,0.5-0.2,0.5-0.5S19.3,8.6,19,8.6z"/>
</g>
</svg>
