<?xml version="1.0" encoding="UTF-8"?>
<svg width="24px" height="24px" viewBox="0 0 24 24" version="1.1" xmlns="http://www.w3.org/2000/svg" xmlns:xlink="http://www.w3.org/1999/xlink">
    <title>VW/Icons/plus-circ</title>
    <defs>
        <path d="M11.9999999,-5.00000006e-08 C5.39999997,-5.00000006e-08 -5.00000006e-08,5.39999997 -5.00000006e-08,11.9999999 C-5.00000006e-08,18.6 5.39999997,23.9999999 11.9999999,23.9999999 C18.6,23.9999999 23.9999999,18.6 23.9999999,11.9999999 C23.9999999,5.39999997 18.6,-5.00000006e-08 11.9999999,-5.00000006e-08 Z M12,23.25 C5.77499997,23.25 0.749999953,18.225 0.749999953,12 C0.749999953,5.77499997 5.77499997,0.749999953 12,0.749999953 C18.225,0.749999953 23.25,5.77499997 23.25,12 C23.25,18.225 18.225,23.25 12,23.25 Z M12.375,6.89999998 L11.625,6.89999998 L11.625,11.625 L6.89999998,11.625 L6.89999998,12.375 L11.625,12.375 L11.625,17.1 L12.375,17.1 L12.375,12.375 L17.1,12.375 L17.1,11.625 L12.375,11.625 L12.375,6.89999998 Z" id="path-1"></path>
    </defs>
    <g id="VW/Icons/plus-circ" stroke="none" stroke-width="1" fill="none" fill-rule="evenodd">
        <mask id="mask-2" fill="white">
            <use xlink:href="#path-1"></use>
        </mask>
        <g fill-rule="nonzero"></g>
        <g id="Group" mask="url(#mask-2)" fill="#000000">
            <g id="🎨-color">
                <rect id="Swatch" x="0" y="0" width="24" height="24"></rect>
            </g>
        </g>
    </g>
</svg>