<svg
    xmlns="http://www.w3.org/2000/svg"    
    x="0px"
    y="0px"
    viewBox="0 0 24 24"
    aria-labelledby="question circle"
    role="presentation"
  >
    <title  lang="en">question circle</title>

    <g fill="currentColor">
	<path id="path-1_00000071561380826859039490000010974492133689193907_" d="M12,1C5.8,1,0.8,5.9,0.8,12.1s5,11.2,11.2,11.2
		s11.2-5,11.2-11.2S18.1,1,12,1z M13.1,18.8h-2.2v-2.2h2.2V18.8z M14.9,12.1l-0.5-0.4l-1.6,2.2c-0.3,0.4-0.4,0.9-0.4,1.4h-1.7v-0.1
		c0-0.8,0.2-1.3,0.7-2l1.6-2.2c0.5-0.7,0.8-1.3,0.8-1.9c0-1.4-0.9-2.4-2.2-2.4c-1.1,0-1.9,0.8-2.2,1.9H7.5c0.2-2,1.8-3.4,3.9-3.4
		c2.2,0,3.9,1.6,3.9,4c0,0.8-0.3,1.6-0.9,2.5L14.9,12.1z"/>
</g>
</svg>
