<?xml version="1.0" encoding="UTF-8"?>
<svg width="24px" height="24px" viewBox="0 0 24 24" version="1.1" xmlns="http://www.w3.org/2000/svg" xmlns:xlink="http://www.w3.org/1999/xlink">
    <title>VW/Icons/quest-circ-fill</title>
    <defs>
        <path d="M12,0.974999954 C5.84999997,0.974999954 0.824999953,5.92499997 0.824999953,12.075 C0.824999953,18.225 5.84999997,23.25 12,23.25 C18.15,23.25 23.175,18.225 23.175,12.075 C23.175,5.92499997 18.15,0.974999954 12,0.974999954 Z M13.125,18.825 L10.875,18.825 L10.875,16.575 L13.125,16.575 L13.125,18.825 Z M14.85,12.15 L14.4,11.775 L12.825,13.95 C12.525,14.325 12.375,14.85 12.375,15.375 L10.65,15.375 L10.65,15.3 C10.65,14.475 10.8,14.025 11.325,13.275 L12.9,11.1 C13.35,10.425 13.65,9.82499997 13.65,9.22499999 C13.65,7.79999998 12.75,6.82499997 11.4,6.82499997 C10.275,6.82499997 9.44999999,7.57499998 9.22499999,8.69999999 L7.49999998,8.69999999 C7.72499998,6.67499998 9.29999999,5.32499997 11.4,5.32499997 C13.65,5.32499997 15.3,6.89999998 15.3,9.29999999 C15.3,10.125 15,10.875 14.4,11.775 L14.85,12.15 Z" id="path-1"></path>
    </defs>
    <g id="VW/Icons/quest-circ-fill" stroke="none" stroke-width="1" fill="none" fill-rule="evenodd">
        <mask id="mask-2" fill="white">
            <use xlink:href="#path-1"></use>
        </mask>
        <g fill-rule="nonzero"></g>
        <g id="Group" mask="url(#mask-2)" fill="#000000">
            <g id="🎨-color">
                <rect id="Swatch" x="0" y="0" width="24" height="24"></rect>
            </g>
        </g>
    </g>
</svg>