<?xml version="1.0" encoding="UTF-8"?>
<svg width="24px" height="24px" viewBox="0 0 24 24" version="1.1" xmlns="http://www.w3.org/2000/svg" xmlns:xlink="http://www.w3.org/1999/xlink">
    <title>VW/Icons/quotes</title>
    <defs>
        <path d="M8.69999999,21.45 L-5.00000006e-08,21.45 L-5.00000006e-08,15.225 C-5.00000006e-08,12.675 0.224999951,10.725 0.674999953,9.22499999 C1.12499995,7.79999998 1.94999996,6.44999998 3.14999996,5.32499997 C4.34999997,4.19999997 5.84999997,3.22499996 7.72499998,2.62499996 L9.44999999,6.22499998 C7.72499998,6.82499998 6.44999998,7.64999998 5.69999997,8.62499996 C4.94999997,9.67499999 4.57499997,11.025 4.49999995,12.75 L8.69999999,12.75 L8.69999999,21.45 L8.69999999,21.45 Z M23.25,21.45 L14.55,21.45 L14.55,15.225 C14.55,12.675 14.775,10.65 15.225,9.22499999 C15.675,7.79999998 16.5,6.44999998 17.7,5.32499997 C18.9,4.19999997 20.4,3.22499996 22.275,2.62499996 L24.0000001,6.14999998 C22.275,6.74999998 21,7.57499998 20.25,8.54999999 C19.5,9.59999999 19.125,10.95 19.05,12.675 L23.25,12.675 L23.25,21.45 Z" id="path-1"></path>
    </defs>
    <g id="VW/Icons/quotes" stroke="none" stroke-width="1" fill="none" fill-rule="evenodd">
        <mask id="mask-2" fill="white">
            <use xlink:href="#path-1"></use>
        </mask>
        <g fill-rule="nonzero"></g>
        <g id="Group" mask="url(#mask-2)" fill="#000000">
            <g id="🎨-color">
                <rect id="Swatch" x="0" y="0" width="24" height="24"></rect>
            </g>
        </g>
    </g>
</svg>