<?xml version="1.0" encoding="UTF-8"?>
<svg width="24px" height="24px" viewBox="0 0 24 24" version="1.1" xmlns="http://www.w3.org/2000/svg" xmlns:xlink="http://www.w3.org/1999/xlink">
    <title>VW/Icons/remote-assist</title>
    <defs>
        <path d="M2.92499996,23.025 L18.3,23.025 L18.3,22.575 L2.92499996,22.575 L2.92499996,23.025 Z M18.375,0.974999954 L13.95,0.974999954 C11.775,0.974999954 9.82499999,2.24999996 8.92499999,4.04999997 L0.299999951,4.04999997 C0.149999951,4.04999997 -5.00000006e-08,4.19999997 -5.00000006e-08,4.34999997 L-5.00000006e-08,20.175 C-5.00000006e-08,20.325 0.149999951,20.475 0.299999951,20.475 L20.925,20.475 C21.075,20.475 21.225,20.325 21.225,20.175 L21.225,11.4 C22.875,10.425 23.9999999,8.62499999 23.9999999,6.59999998 C23.9999999,3.52499996 21.45,0.974999954 18.375,0.974999954 Z M20.625,19.875 L0.599999952,19.875 L0.599999952,4.64999997 L8.62499999,4.64999997 C8.39999998,5.24999997 8.24999998,5.92499997 8.24999998,6.59999998 C8.24999998,8.54999999 9.29999999,10.35 10.95,11.4 L9.82499999,14.85 C9.82499999,14.925 9.82499999,15 9.89999999,15.075 C9.97499999,15.075 9.97499999,15.15 10.05,15.15 C10.05,15.15 10.125,15.15 10.125,15.15 L15.45,12.225 L18.225,12.225 C19.05,12.225 19.8,12.075 20.55,11.7 L20.55,19.875 L20.625,19.875 Z M18.375,11.775 L15.525,11.775 C15.525,11.775 15.45,11.775 15.45,11.775 L10.5,14.475 L11.475,11.325 C11.475,11.25 11.475,11.1 11.4,11.1 C9.74999999,10.2 8.77499999,8.47499999 8.77499999,6.59999998 C8.77499999,3.74999997 11.1,1.42499996 14.025,1.42499996 L18.45,1.42499996 C21.3,1.42499996 23.7,3.74999997 23.7,6.59999998 C23.55,9.44999999 21.225,11.775 18.375,11.775 Z M12.9,5.54999997 L19.425,5.54999997 L19.425,5.09999997 L12.9,5.09999997 L12.9,5.54999997 Z M12.9,8.02499998 L19.425,8.02499998 L19.425,7.57499998 L12.9,7.57499998 L12.9,8.02499998 Z" id="path-1"></path>
    </defs>
    <g id="VW/Icons/remote-assist" stroke="none" stroke-width="1" fill="none" fill-rule="evenodd">
        <mask id="mask-2" fill="white">
            <use xlink:href="#path-1"></use>
        </mask>
        <g fill-rule="nonzero"></g>
        <g id="Group" mask="url(#mask-2)" fill="#000000">
            <g id="🎨-color">
                <rect id="Swatch" x="0" y="0" width="24" height="24"></rect>
            </g>
        </g>
    </g>
</svg>