<?xml version="1.0" encoding="UTF-8"?>
<svg width="24px" height="24px" viewBox="0 0 24 24" version="1.1" xmlns="http://www.w3.org/2000/svg" xmlns:xlink="http://www.w3.org/1999/xlink">
    <title>VW/Icons/search-circ</title>
    <defs>
        <path d="M11.9999999,-5.00000006e-08 C5.39999997,-5.00000006e-08 -5.00000006e-08,5.39999997 -5.00000006e-08,11.9999999 C-5.00000006e-08,18.6 5.39999997,23.9999999 11.9999999,23.9999999 C18.6,23.9999999 23.9999999,18.6 23.9999999,11.9999999 C23.9999999,5.39999997 18.6,-5.00000006e-08 11.9999999,-5.00000006e-08 Z M12,23.025 C5.92499997,23.025 0.974999954,18.075 0.974999954,12 C0.974999954,5.92499997 5.92499997,0.974999954 12,0.974999954 C18.075,0.974999954 23.025,5.92499997 23.025,12 C23.025,18.075 18.075,23.025 12,23.025 Z M15.825,10.575 C15.825,7.79999998 13.575,5.54999997 10.725,5.54999997 C7.94999998,5.54999997 5.62499997,7.79999998 5.62499997,10.575 C5.62499997,13.35 7.87499998,15.6 10.725,15.6 C12,15.6 13.125,15.15 13.95,14.4 L17.1,17.55 L17.7,16.95 L14.55,13.8 C15.375,12.975 15.825,11.85 15.825,10.575 Z M10.8,14.85 C8.47499999,14.85 6.52499998,12.975 6.52499998,10.65 C6.52499998,8.32499998 8.39999999,6.44999998 10.8,6.44999998 C13.2,6.44999998 15.075,8.32499998 15.075,10.65 C15.075,12.9 13.125,14.85 10.8,14.85 Z" id="path-1"></path>
    </defs>
    <g id="VW/Icons/search-circ" stroke="none" stroke-width="1" fill="none" fill-rule="evenodd">
        <mask id="mask-2" fill="white">
            <use xlink:href="#path-1"></use>
        </mask>
        <g fill-rule="nonzero"></g>
        <g id="Group" mask="url(#mask-2)" fill="#000000">
            <g id="🎨-color">
                <rect id="Swatch" x="0" y="0" width="24" height="24"></rect>
            </g>
        </g>
    </g>
</svg>