<svg
    xmlns="http://www.w3.org/2000/svg"    
    x="0px"
    y="0px"
    viewBox="0 0 24 24"
    aria-labelledby="chevron down"
    role="presentation"
  >
    <title  lang="en">chevron down</title>

    <g fill="currentColor">
	<path id="path-1_00000149367790310571731860000007506734657425343390_" d="M12,0C5.4,0,0,5.4,0,12s5.4,12,12,12s12-5.4,12-12
		S18.6,0,12,0z M18.8,8.9c0,0.1,0,0.3,0,0.4c0,4.5-3.4,9.6-9.6,9.6c-1.9,0-3.7-0.5-5.2-1.5c0.3,0,0.5,0.1,0.8,0.1
		c1.6,0,3.1-0.5,4.2-1.4c-1.5,0-2.7-1-3.1-2.3c0.2,0.1,0.4,0.1,0.6,0.1c0.3,0,0.6-0.1,0.9-0.1c-1.6-0.3-2.7-1.7-2.7-3.3
		c0,0,0,0,0-0.1c0.5,0.2,1,0.4,1.5,0.4c-0.9-0.6-1.5-1.7-1.5-2.9c0-0.6,0.2-1.2,0.5-1.7c1.6,2,4.1,3.4,7,3.5
		c-0.1-0.2-0.1-0.5-0.1-0.8c0-1.9,1.5-3.4,3.4-3.4c1,0,1.9,0.4,2.5,1.1c0.8-0.2,1.5-0.5,2.2-0.8c-0.2,0.8-0.8,1.4-1.5,1.9
		c0.7-0.1,1.4-0.3,1.9-0.5C20.1,7.9,19.5,8.5,18.8,8.9z"/>
</g>
</svg>
