<?xml version="1.0" encoding="UTF-8"?>
<svg width="24px" height="24px" viewBox="0 0 24 24" version="1.1" xmlns="http://www.w3.org/2000/svg" xmlns:xlink="http://www.w3.org/1999/xlink">
    <title>VW/Icons/vw-v</title>
    <defs>
        <path d="M11.9999999,-5.00000006e-08 C5.39999997,-5.00000006e-08 -5.00000006e-08,5.39999997 -5.00000006e-08,11.9999999 C-5.00000006e-08,18.6 5.39999997,23.9999999 11.9999999,23.9999999 C18.6,23.9999999 23.9999999,18.6 23.9999999,11.9999999 C23.9999999,5.39999997 18.6,-5.00000006e-08 11.9999999,-5.00000006e-08 Z M12,22.725 C6.07499998,22.725 1.27499996,17.925 1.27499996,12 C1.27499996,6.07499998 6.07499998,1.27499996 12,1.27499996 C17.925,1.27499996 22.725,6.07499998 22.725,12 C22.725,17.925 17.925,22.725 12,22.725 Z M8.77499999,7.49999998 L6.52499998,7.49999998 C6.37499998,7.49999998 6.37499998,7.57499998 6.37499998,7.72499998 L10.8,18.375 C10.875,18.45 10.95,18.6 11.1,18.6 L13.05,18.6 C13.2,18.6 13.2,18.525 13.2,18.375 L8.84999999,7.57499998 C8.92499999,7.57499998 8.84999999,7.49999998 8.77499999,7.49999998 Z M17.475,7.49999998 L15.225,7.49999998 C15.15,7.49999998 15.075,7.57499998 15.075,7.57499998 L13.35,11.85 C13.275,11.925 13.275,12.15 13.35,12.225 L14.4,14.775 C14.475,14.925 14.625,14.925 14.7,14.775 L17.625,7.72499998 C17.625,7.57499998 17.625,7.49999998 17.475,7.49999998 Z" id="path-1"></path>
    </defs>
    <g id="VW/Icons/vw-v" stroke="none" stroke-width="1" fill="none" fill-rule="evenodd">
        <mask id="mask-2" fill="white">
            <use xlink:href="#path-1"></use>
        </mask>
        <g fill-rule="nonzero"></g>
        <g id="Group" mask="url(#mask-2)" fill="#000000">
            <g id="🎨-color">
                <rect id="Swatch" x="0" y="0" width="24" height="24"></rect>
            </g>
        </g>
    </g>
</svg>