<svg
    xmlns="http://www.w3.org/2000/svg"    
    x="0px"
    y="0px"
    viewBox="0 0 24 24"
    aria-labelledby="chevron down"
    role="presentation"
  >
    <title  lang="en">chevron down</title>

    <g fill="currentColor">
	<path id="path-1_00000124854890726515827430000010926626601292032164_" d="M3.2,22.4H20v-0.5H3.2V22.4z M9.2,15.4L9.2,15.4
		c0.1,0,0.1,0,0.2-0.1l6.5-4.6c0.1-0.1,0.1-0.1,0.1-0.1c0-0.1,0-0.1-0.1-0.1L9.5,5.8c-0.1-0.1-0.1-0.1-0.2,0C9.2,5.8,9.1,5.9,9.1,6
		v9.2C9.1,15.3,9.2,15.3,9.2,15.4z M9.5,6.4l5.9,4.2l-5.9,4.2V6.4z M22.9,1.6H0.4C0.1,1.6,0,1.7,0,2v17.3c0,0.2,0.1,0.4,0.4,0.4H23
		c0.2,0,0.4-0.1,0.4-0.4V2C23.3,1.7,23.1,1.6,22.9,1.6z M22.6,18.9h-22V2.3h21.9L22.6,18.9L22.6,18.9z"/>
</g>
</svg>
