<?xml version="1.0" encoding="UTF-8"?>
<svg width="24px" height="24px" viewBox="0 0 24 24" version="1.1" xmlns="http://www.w3.org/2000/svg" xmlns:xlink="http://www.w3.org/1999/xlink">
    <title>VW/Icons/webinars</title>
    <defs>
        <path d="M3.19999996,22.4 L20,22.4 L20,21.8909091 L3.19999996,21.8909091 L3.19999996,22.4 Z M9.23636362,15.4181818 C9.23636362,15.4181818 9.3090909,15.4181818 9.3090909,15.4181818 C9.38181817,15.4181818 9.38181817,15.4181818 9.45454544,15.3454546 L15.9272727,10.7636363 C16,10.6909091 16,10.6909091 16,10.6181818 C16,10.5454545 16,10.4727273 15.9272727,10.4727273 L9.45454544,5.81818179 C9.38181817,5.74545452 9.3090909,5.74545452 9.23636362,5.81818179 C9.16363635,5.81818179 9.09090908,5.89090907 9.09090908,6.03636361 L9.09090908,15.2 C9.09090908,15.2727273 9.16363635,15.3454546 9.23636362,15.4181818 Z M9.52727272,6.39999998 L15.4181818,10.6181818 L9.52727272,14.8363636 L9.52727272,6.39999998 Z M22.909091,1.59999996 L0.363636315,1.59999996 C0.145454496,1.59999996 -5.00000006e-08,1.7454545 -5.00000006e-08,1.96363632 L-5.00000006e-08,19.2727273 C-5.00000006e-08,19.4909091 0.145454496,19.6363637 0.363636315,19.6363637 L22.9818182,19.6363637 C23.2,19.6363637 23.3454546,19.4909091 23.3454546,19.2727273 L23.3454546,1.96363632 C23.2727273,1.7454545 23.1272728,1.59999996 22.909091,1.59999996 Z M22.6181819,18.9090909 L0.654545407,18.9090909 L0.654545407,2.32727269 L22.5454546,2.32727269 L22.5454546,18.9090909 L22.6181819,18.9090909 Z" id="path-1"></path>
    </defs>
    <g id="VW/Icons/webinars" stroke="none" stroke-width="1" fill="none" fill-rule="evenodd">
        <mask id="mask-2" fill="white">
            <use xlink:href="#path-1"></use>
        </mask>
        <g fill-rule="nonzero"></g>
        <g id="Group" mask="url(#mask-2)" fill="#000000">
            <g id="🎨-color">
                <rect id="Swatch" x="0" y="0" width="24" height="24"></rect>
            </g>
        </g>
    </g>
</svg>