<?xml version="1.0" encoding="UTF-8"?>
<svg width="24px" height="24px" viewBox="0 0 24 24" version="1.1" xmlns="http://www.w3.org/2000/svg" xmlns:xlink="http://www.w3.org/1999/xlink">
    <title>VW/Icons/yt</title>
    <defs>
        <path d="M10.275,14.55 L14.55,12.15 L10.275,9.74999999 C10.35,9.74999999 10.275,14.55 10.275,14.55 Z M11.9999999,-5.00000006e-08 C5.39999997,-5.00000006e-08 -5.00000006e-08,5.39999997 -5.00000006e-08,11.9999999 C-5.00000006e-08,18.6 5.39999997,23.9999999 11.9999999,23.9999999 C18.6,23.9999999 23.9999999,18.6 23.9999999,11.9999999 C23.9999999,5.39999997 18.6,-5.00000006e-08 11.9999999,-5.00000006e-08 Z M20.175,15.225 C20.175,16.5 19.125,17.55 17.85,17.55 C15.975,17.625 14.1,17.7 12.15,17.625 C10.2,17.625 8.32499998,17.625 6.44999998,17.55 C5.17499997,17.55 4.12499997,16.5 4.12499997,15.225 C4.04999997,14.175 3.97499997,13.2 4.04999997,12.15 C4.04999997,11.1 4.04999997,10.125 4.12499997,9.07499999 C4.12499997,7.79999998 5.17499997,6.74999998 6.44999998,6.74999998 C8.24999998,6.74999998 10.05,6.67499998 11.85,6.67499998 L12.45,6.67499998 C14.25,6.67499998 16.05,6.67499998 17.85,6.74999998 C19.125,6.74999998 20.175,7.79999998 20.175,9.07499999 C20.25,10.125 20.325,11.1 20.25,12.15 C20.25,13.2 20.25,14.25 20.175,15.225 Z" id="path-1"></path>
    </defs>
    <g id="VW/Icons/yt" stroke="none" stroke-width="1" fill="none" fill-rule="evenodd">
        <mask id="mask-2" fill="white">
            <use xlink:href="#path-1"></use>
        </mask>
        <g fill-rule="nonzero"></g>
        <g id="Group" mask="url(#mask-2)" fill="#000000">
            <g id="🎨-color">
                <rect id="Swatch" x="0" y="0" width="24" height="24"></rect>
            </g>
        </g>
    </g>
</svg>